<?xml version="1.0" encoding="utf-8"?>
<!-- Generator: Adobe Illustrator 21.1.0, SVG Export Plug-In . SVG Version: 6.00 Build 0)  -->
<svg version="1.1" id="Layer_1" xmlns="http://www.w3.org/2000/svg" xmlns:xlink="http://www.w3.org/1999/xlink" x="0px" y="0px"
	 viewBox="0 0 603 31" style="enable-background:new 0 0 603 31;" xml:space="preserve">
<style type="text/css">
	.st0{fill:#00ffb4;}
</style>
<g>
	<path class="st0" d="M20.9,0l-1.5,30.1H14l-2.5-12.2L8.8,30.1H3.7L2.2,0h3.2l1.3,26.9l3.6-14.2h2.7l3.7,14.2L17.9,0H20.9z"/>
	<path class="st0" d="M42,30.1H27.6V0H42v3.1H31.4V13h9.5v3.1h-9.5V27H42V30.1z"/>
	<path class="st0" d="M66,23.3c0,2.5-0.6,4.2-1.7,5.2c-1.1,1-3,1.5-5.6,1.5h-8.6V0h8.1c2.6,0,4.4,0.5,5.6,1.5c1.2,1,1.8,2.8,1.8,5.2
		v2.5c0,2.2-0.8,3.9-2.4,5c1.9,1,2.8,2.8,2.8,5.3V23.3z M61.8,9.6V6.3c0-1.1-0.3-1.9-0.8-2.4c-0.5-0.5-1.3-0.7-2.4-0.7h-4.9v9.5h4.9
		c0.9,0,1.6-0.3,2.2-0.9C61.5,11.3,61.8,10.5,61.8,9.6z M62.3,23.7V19c0-0.9-0.3-1.7-0.9-2.3c-0.6-0.6-1.3-0.8-2.3-0.8h-5.3v10.9
		h5.2c1.1,0,1.9-0.3,2.4-0.8C62,25.6,62.3,24.8,62.3,23.7z"/>
	<path class="st0" d="M88.5,22.8c0,2.4-0.7,4.3-2,5.5c-1.3,1.2-3.2,1.8-5.7,1.8h-6.1v-3.3h6.5c1.1,0,1.9-0.3,2.6-0.9
		c0.7-0.6,1-1.4,1-2.3v-4.5c0-0.9-0.2-1.6-0.7-2.1c-0.4-0.5-1.1-0.8-2-0.8h-1.3c-2.1,0-3.8-0.6-5-1.9c-1.2-1.2-1.8-3.1-1.8-5.4V7.3
		c0-2.4,0.7-4.3,2-5.5C77.3,0.6,79.2,0,81.7,0h6.1v3.3h-6.6c-1.1,0-1.9,0.3-2.6,0.9c-0.7,0.6-1,1.4-1,2.3v3.3c0,0.9,0.3,1.6,0.9,2.2
		c0.6,0.6,1.3,0.9,2.2,0.9h1.3c2,0,3.6,0.6,4.8,1.8c1.1,1.2,1.7,3,1.7,5.3V22.8z"/>
	<path class="st0" d="M110.2,30.1H98.7V27h3.9V3.1h-3.9V0h11.5v3.1h-3.9V27h3.9V30.1z"/>
	<path class="st0" d="M136.4,3.3h-6.8v26.8h-3.7V3.3H119V0h17.4V3.3z"/>
	<path class="st0" d="M158.1,30.1h-14.4V0h14.4v3.1h-10.6V13h9.5v3.1h-9.5V27h10.6V30.1z"/>
	<path class="st0" d="M205.6,22.8c0,2.4-0.7,4.3-2,5.5c-1.3,1.2-3.2,1.8-5.7,1.8h-1.1c-2.5,0-4.4-0.6-5.7-1.8c-1.3-1.2-2-3-2-5.5V0
		h3.7v23.6c0,0.9,0.3,1.6,1,2.3c0.7,0.6,1.5,0.9,2.6,0.9h1.9c1.1,0,1.9-0.3,2.6-0.9c0.7-0.6,1-1.4,1-2.3V0h3.7V22.8z"/>
	<path class="st0" d="M228.8,30.1h-6.1l-6.8-26.9v26.9h-3.5V0h6.1l6.8,26.9V0h3.5V30.1z"/>
	<path class="st0" d="M251.9,23.3c0,2.5-0.6,4.2-1.7,5.2c-1.1,1-3,1.5-5.6,1.5h-8.9V0h8.3c2.6,0,4.5,0.5,5.8,1.6c1.3,1,2,2.8,2,5.1
		V23.3z M248.2,23.7V6.3c0-0.9-0.3-1.7-0.9-2.3c-0.6-0.6-1.3-0.8-2.3-0.8h-5.5v23.6h5.5c1.1,0,1.9-0.3,2.4-0.8
		C247.9,25.6,248.2,24.8,248.2,23.7z"/>
	<path class="st0" d="M274.2,30.1h-14.4V0h14.4v3.1h-10.6V13h9.5v3.1h-9.5V27h10.6V30.1z"/>
	<path class="st0" d="M285.4,17.6v12.5h-3.7V0h8.1c4.9,0,7.4,2.2,7.4,6.7v4.1c0,3.2-1.3,5.3-3.9,6.1l6,13.2h-4.1l-5.5-12.5H285.4z
		 M293.4,11.3V6.3c0-1.1-0.3-1.9-0.8-2.4c-0.5-0.5-1.3-0.7-2.4-0.7h-4.9v11.2h4.9c1.1,0,1.9-0.3,2.4-0.8
		C293.1,13.2,293.4,12.4,293.4,11.3z"/>
	<path class="st0" d="M343.6,30.1h-6.1c-2.5,0-4.4-0.6-5.7-1.8c-1.3-1.2-2-3-2-5.5V7.3c0-2.4,0.7-4.3,2-5.5c1.3-1.2,3.2-1.8,5.7-1.8
		h6.1v3.3h-6.5c-1.1,0-1.9,0.3-2.6,0.9c-0.7,0.6-1,1.4-1,2.3v17.1c0,0.9,0.3,1.6,1,2.3c0.7,0.6,1.5,0.9,2.6,0.9h6.5V30.1z"/>
	<path class="st0" d="M368.5,22.8c0,2.4-0.7,4.3-2,5.5c-1.3,1.2-3.2,1.8-5.7,1.8H359c-2.5,0-4.4-0.6-5.7-1.8c-1.3-1.2-2-3-2-5.5V7.3
		c0-2.4,0.7-4.3,2-5.5c1.3-1.2,3.2-1.8,5.7-1.8h1.7c2.5,0,4.4,0.6,5.7,1.8c1.3,1.2,2,3,2,5.5V22.8z M364.8,23.6V6.5
		c0-0.9-0.3-1.6-1-2.3c-0.7-0.6-1.5-0.9-2.6-0.9h-2.6c-1.1,0-1.9,0.3-2.6,0.9c-0.7,0.6-1,1.4-1,2.3v17.1c0,0.9,0.3,1.6,1,2.3
		c0.7,0.6,1.5,0.9,2.6,0.9h2.6c1.1,0,1.9-0.3,2.6-0.9C364.4,25.3,364.8,24.5,364.8,23.6z"/>
	<path class="st0" d="M391.3,30.1h-6.1l-6.8-26.9v26.9h-3.5V0h6.1l6.8,26.9V0h3.5V30.1z"/>
	<path class="st0" d="M413.6,22.8c0,2.4-0.7,4.3-2,5.5c-1.3,1.2-3.2,1.8-5.7,1.8h-6.1v-3.3h6.5c1.1,0,1.9-0.3,2.6-0.9
		c0.7-0.6,1-1.4,1-2.3v-4.5c0-0.9-0.2-1.6-0.7-2.1c-0.4-0.5-1.1-0.8-2-0.8h-1.3c-2.1,0-3.8-0.6-5-1.9c-1.2-1.2-1.8-3.1-1.8-5.4V7.3
		c0-2.4,0.7-4.3,2-5.5c1.3-1.2,3.2-1.8,5.7-1.8h6.1v3.3h-6.6c-1.1,0-1.9,0.3-2.6,0.9c-0.7,0.6-1,1.4-1,2.3v3.3
		c0,0.9,0.3,1.6,0.9,2.2c0.6,0.6,1.3,0.9,2.2,0.9h1.3c2,0,3.6,0.6,4.8,1.8c1.1,1.2,1.7,3,1.7,5.3V22.8z"/>
	<path class="st0" d="M438.3,3.3h-6.8v26.8h-3.7V3.3h-6.8V0h17.4V3.3z"/>
	<path class="st0" d="M447.9,17.6v12.5h-3.7V0h8.1c4.9,0,7.4,2.2,7.4,6.7v4.1c0,3.2-1.3,5.3-3.9,6.1l6,13.2h-4.1l-5.5-12.5H447.9z
		 M455.9,11.3V6.3c0-1.1-0.3-1.9-0.8-2.4c-0.5-0.5-1.3-0.7-2.4-0.7h-4.9v11.2h4.9c1.1,0,1.9-0.3,2.4-0.8S455.9,12.4,455.9,11.3z"/>
	<path class="st0" d="M484.3,22.8c0,2.4-0.7,4.3-2,5.5c-1.3,1.2-3.2,1.8-5.7,1.8h-1.1c-2.5,0-4.4-0.6-5.7-1.8c-1.3-1.2-2-3-2-5.5V0
		h3.7v23.6c0,0.9,0.3,1.6,1,2.3c0.7,0.6,1.5,0.9,2.6,0.9h1.9c1.1,0,1.9-0.3,2.6-0.9c0.7-0.6,1-1.4,1-2.3V0h3.7V22.8z"/>
	<path class="st0" d="M506.1,30.1H500c-2.5,0-4.4-0.6-5.7-1.8c-1.3-1.2-2-3-2-5.5V7.3c0-2.4,0.7-4.3,2-5.5c1.3-1.2,3.2-1.8,5.7-1.8
		h6.1v3.3h-6.5c-1.1,0-1.9,0.3-2.6,0.9c-0.7,0.6-1,1.4-1,2.3v17.1c0,0.9,0.3,1.6,1,2.3c0.7,0.6,1.5,0.9,2.6,0.9h6.5V30.1z"/>
	<path class="st0" d="M531.1,3.3h-6.8v26.8h-3.7V3.3h-6.8V0h17.4V3.3z"/>
	<path class="st0" d="M551.4,30.1h-11.5V27h3.9V3.1h-3.9V0h11.5v3.1h-3.9V27h3.9V30.1z"/>
	<path class="st0" d="M577.5,22.8c0,2.4-0.7,4.3-2,5.5c-1.3,1.2-3.2,1.8-5.7,1.8H568c-2.5,0-4.4-0.6-5.7-1.8c-1.3-1.2-2-3-2-5.5V7.3
		c0-2.4,0.7-4.3,2-5.5c1.3-1.2,3.2-1.8,5.7-1.8h1.7c2.5,0,4.4,0.6,5.7,1.8c1.3,1.2,2,3,2,5.5V22.8z M573.7,23.6V6.5
		c0-0.9-0.3-1.6-1-2.3c-0.7-0.6-1.5-0.9-2.6-0.9h-2.6c-1.1,0-1.9,0.3-2.6,0.9c-0.7,0.6-1,1.4-1,2.3v17.1c0,0.9,0.3,1.6,1,2.3
		c0.7,0.6,1.5,0.9,2.6,0.9h2.6c1.1,0,1.9-0.3,2.6-0.9C573.4,25.3,573.7,24.5,573.7,23.6z"/>
	<path class="st0" d="M600.3,30.1h-6.1l-6.8-26.9v26.9h-3.5V0h6.1l6.8,26.9V0h3.5V30.1z"/>
</g>
</svg>
